<svg width="42" height="42" viewBox="0 0 42 42" fill="none" xmlns="http://www.w3.org/2000/svg">
    <path
        d="M40.8553 29.6386C40.8524 29.6158 40.8471 29.5936 40.8392 29.572C40.8332 29.5494 40.8245 29.5277 40.8133 29.5072C40.2819 28.0927 38.8362 27.0188 37.8204 25.9686C36.457 24.5596 35.1049 23.1437 33.6981 21.7769C32.3438 20.4613 30.9675 19.1634 29.5453 17.9193C30.5952 17.2379 31.8684 16.4118 32.0899 15.1479C32.2764 14.0859 31.5838 13.4557 30.904 12.7952L31.4074 12.1751C31.995 13.2357 32.6946 14.2434 33.5758 15.0805C33.987 15.4714 34.9884 16.5405 35.5995 16.0586C36.0725 15.6857 35.7193 15.2161 35.4753 14.8293C35.0773 14.1958 34.6549 13.5777 34.2002 12.9831C33.6286 12.2365 33.0074 11.5225 32.2944 10.9075C32.4445 10.3671 32.3227 9.77612 31.7274 9.54569C31.2199 9.34908 30.7846 9.57734 30.3935 9.86888C29.6168 8.60176 28.7592 7.36747 27.7248 6.29645C27.3678 5.92698 26.3316 4.67518 25.7476 5.14728C25.1912 5.59707 25.8955 6.48131 26.1396 6.92151C26.5173 7.61016 26.9549 8.26427 27.4472 8.87628C28.0031 9.56247 28.6499 10.1892 29.3919 10.6728L29.0563 10.945C28.3961 10.265 27.7658 9.57255 26.7037 9.75881C25.4405 9.98041 24.6146 11.2526 23.9335 12.3025C22.3623 10.5028 20.7054 8.77198 19.0223 7.07855C17.4759 5.52466 15.8967 3.99162 14.3087 2.47585C13.344 1.55565 12.1283 0.46186 10.7126 1.10538C9.42064 1.69184 8.77335 3.28121 8.54008 4.58863C8.28763 6.0073 8.53624 7.46576 8.86876 8.85062C9.59541 11.8761 10.885 14.7712 12.2786 17.5422C13.12 19.2159 14.0148 20.8749 15.0011 22.4686L10.0365 28.0567C8.80235 27.0322 7.50632 26.0549 6.07939 25.3162C4.99576 24.7552 3.85629 24.2635 2.68444 24.8847C1.62958 25.4445 0.821419 26.7309 1.1362 27.9442C1.32487 28.6704 1.88802 29.343 2.33274 29.9299C2.84861 30.6059 3.40082 31.2532 3.98694 31.8691C4.69178 32.6146 5.4328 33.3358 6.21652 34.0008C5.87656 34.5909 5.35201 35.4068 5.89935 35.9541C6.44667 36.5016 7.26179 35.9782 7.85179 35.637C8.37729 36.2549 8.93948 36.8444 9.51606 37.4136C10.6819 38.5644 11.9853 39.7892 13.4578 40.5411C14.5973 41.1232 15.9327 40.5609 16.6778 39.6086C17.5265 38.524 17.3038 37.4028 16.7677 36.2431C16.0207 34.6281 14.9316 33.1802 13.7978 31.8154L19.3838 26.8507C21.4489 28.1298 23.6146 29.2704 25.81 30.3052C27.6799 31.1867 29.5978 31.9911 31.5788 32.5944C33.3514 33.1346 35.3262 33.6379 37.1859 33.3259C38.9587 33.0298 41.3995 31.7963 40.8553 29.6386ZM33.1894 12.6583C33.537 13.0673 33.8626 13.4938 34.1723 13.9316C34.3452 14.1754 34.5131 14.4223 34.6757 14.6723C34.7815 14.8339 35.1984 15.3182 35.1625 15.4971C35.1311 15.6538 35.195 15.5354 35.0689 15.5141C35.021 15.5061 34.9522 15.4392 34.9124 15.4129C34.7724 15.3193 34.6365 15.2203 34.5048 15.1155C34.1994 14.8708 33.912 14.6044 33.6447 14.3183C32.9029 13.5324 32.3134 12.6252 31.8035 11.6762L31.9952 11.4271C32.4212 11.8094 32.8202 12.2208 33.1894 12.6583ZM31.7008 10.8534L31.2432 11.4501L30.4872 12.3816C30.148 12.0426 29.8089 11.7035 29.4701 11.3643L30.1061 10.8488L30.522 10.5112C30.6441 10.4122 30.7642 10.2907 30.9004 10.2122C31.4261 9.90914 31.9976 10.1829 31.7008 10.8534ZM28.2418 8.90673C27.8321 8.45089 27.4611 7.96168 27.1326 7.44418C26.9432 7.14928 26.7653 6.8475 26.5987 6.53885C26.5544 6.45733 26.0766 5.58244 26.0521 5.61864C26.1034 5.5424 27.572 6.99224 27.6624 7.09317C28.5255 8.05869 29.2569 9.13331 29.9309 10.2377L29.8743 10.2837C29.2629 9.91137 28.7235 9.43636 28.2418 8.90673ZM10.0306 10.7651C9.18186 8.19128 8.23249 4.80226 10.0512 2.40944C10.4644 1.86566 11.0609 1.42953 11.7741 1.50434C12.5605 1.58682 13.2071 2.2464 13.7542 2.75926C15.2478 4.15898 16.7111 5.6057 18.1615 7.05097C20.0229 8.90505 21.8511 10.8059 23.5773 12.7885L16.2225 21.0909C15.9509 21.3974 15.6791 21.7039 15.4074 22.0106C13.2368 18.4912 11.3237 14.6867 10.0306 10.7651ZM16.5728 38.6277C16.2883 39.3835 15.5642 40.026 14.7633 40.1706C13.8548 40.3344 13.045 39.6299 12.3632 39.1229C11.6289 38.5765 10.9394 37.9692 10.2774 37.3369C9.52373 36.6159 8.79108 35.8602 8.12412 35.0591C8.03878 34.9565 7.87672 34.9568 7.76835 35.0131L7.23901 35.2871C7.1177 35.3502 6.99711 35.4155 6.87484 35.4766C6.66267 35.5823 6.65788 35.6389 6.43612 35.4171C6.22036 35.2014 6.25823 35.2186 6.35916 35.0124C6.4167 34.8949 6.47904 34.7799 6.54041 34.6638L6.84128 34.0847C6.89714 33.9774 6.89738 33.8136 6.79549 33.7287C5.99308 33.061 5.23718 32.329 4.51796 31.5752C3.88577 30.9139 3.27827 30.2244 2.73214 29.4892C2.22486 28.8074 1.5205 27.9977 1.68424 27.0891C1.82808 26.2883 2.47155 25.5639 3.22697 25.2793C3.92221 25.018 4.55968 25.2539 5.20123 25.5406C6.91176 26.3053 8.43483 27.472 9.861 28.6695C9.9768 28.7669 10.1636 28.7964 10.2763 28.6695C12.042 26.6822 13.8082 24.6948 15.5745 22.7072C18.0862 19.8716 20.5979 17.0355 23.1098 14.1989L24.1747 12.9969C24.1833 12.9864 24.1913 12.9754 24.1986 12.964C24.2066 12.9555 24.2139 12.9467 24.2207 12.9373C24.4365 12.6101 24.6679 12.2914 24.9021 11.9766C25.3847 11.3276 25.873 10.5479 26.7165 10.3563C27.6754 10.1386 28.2268 10.9533 28.8247 11.5506L30.302 13.0263C30.8989 13.6235 31.7135 14.1772 31.4958 15.1348C31.3105 15.95 30.5762 16.4247 29.9486 16.8946C29.6103 17.148 29.2677 17.3981 28.9151 17.6307C28.9057 17.6375 28.8969 17.6449 28.8884 17.6527C28.8771 17.6601 28.8661 17.6681 28.8556 17.6768L20.3475 25.2153L19.1454 26.2803L13.1836 31.5791C13.0577 31.6908 13.0877 31.8787 13.1836 31.9945C14.3823 33.4206 15.5476 34.9436 16.3122 36.6545C16.5989 37.2961 16.8351 37.931 16.5728 38.6277ZM36.4232 32.8269C34.6585 32.9306 32.818 32.3894 31.1588 31.8466C27.7941 30.7461 24.5863 29.1507 21.5086 27.4141C20.9492 27.0989 20.3921 26.7783 19.8433 26.4443L28.0683 19.157L29.063 18.2756C30.4134 19.4529 31.7207 20.6828 33.0089 21.927C34.3595 23.2316 35.6807 24.5655 36.9723 25.9288C37.5788 26.5697 38.2107 27.1851 38.8244 27.8191C39.3619 28.3744 40.0095 28.9829 40.273 29.7283C40.8483 31.7932 37.9737 32.7361 36.4232 32.8269Z"
        stroke="#F5B923" stroke-width="0.972326" />
</svg>
    